Mertz-Light.ufo
<glyph name="parenleft" format="1">
  <advance width="586"/>
  <unicode hex="0028"/>
  <outline>
    <contour>
      <point x="117" y="653" type="curve" smooth="yes"/>
      <point x="117" y="910"/>
      <point x="164" y="1142"/>
      <point x="258" y="1341" type="curve" smooth="no"/>
      <point x="386" y="1341" type="line" smooth="no"/>
      <point x="293" y="1133"/>
      <point x="252" y="886"/>
      <point x="252" y="653" type="curve" smooth="yes"/>
      <point x="252" y="420"/>
      <point x="293" y="173"/>
      <point x="386" y="-35" type="curve" smooth="no"/>
      <point x="258" y="-35" type="line" smooth="no"/>
      <point x="164" y="164"/>
      <point x="117" y="396"/>
    </contour>
  </outline>
</glyph>
<glyph name="plus" format="1">
  <advance width="1009"/>
  <unicode hex="002B"/>
  <outline>
    <contour>
      <point x="543" y="559" type="line"/>
      <point x="767" y="559" type="line"/>
      <point x="767" y="652" type="line"/>
      <point x="543" y="652" type="line"/>
      <point x="543" y="876" type="line"/>
      <point x="450" y="876" type="line"/>
      <point x="450" y="652" type="line"/>
      <point x="227" y="652" type="line"/>
      <point x="227" y="559" type="line"/>
      <point x="450" y="559" type="line"/>
      <point x="450" y="336" type="line"/>
      <point x="543" y="336" type="line"/>
    </contour>
  </outline>
</glyph>
<glyph name="comma" format="1">
  <advance width="508"/>
  <unicode hex="002C"/>
  <outline>
    <contour>
      <point x="134" y="-153" type="curve"/>
      <point x="193" y="-153" type="line"/>
      <point x="302" y="-61"/>
      <point x="343" y="13"/>
      <point x="343" y="72" type="curve" smooth="yes"/>
      <point x="343" y="114"/>
      <point x="312" y="160"/>
      <point x="255" y="160" type="curve" smooth="yes"/>
      <point x="196" y="160"/>
      <point x="165" y="115"/>
      <point x="165" y="72" type="curve" smooth="yes"/>
      <point x="165" y="38"/>
      <point x="184" y="3"/>
      <point x="220" y="-10" type="curve"/>
      <point x="209" y="-60"/>
      <point x="171" y="-105"/>
    </contour>
  </outline>
</glyph>
<glyph name="period" format="1">
  <advance width="508"/>
  <unicode hex="002E"/>
  <outline>
    <contour>
      <point x="343" y="72" type="curve" smooth="yes"/>
      <point x="343" y="114"/>
      <point x="312" y="160"/>
      <point x="255" y="160" type="curve" smooth="yes"/>
      <point x="196" y="160"/>
      <point x="165" y="115"/>
      <point x="165" y="72" type="curve" smooth="yes"/>
      <point x="165" y="28"/>
      <point x="196" y="-16"/>
      <point x="255" y="-16" type="curve" smooth="yes"/>
      <point x="312" y="-16"/>
      <point x="343" y="28"/>
    </contour>
  </outline>
</glyph>
<glyph name="three" format="1">
  <advance width="901"/>
  <unicode hex="0033"/>
  <outline>
    <contour>
      <point x="409" y="-33" type="curve" smooth="yes"/>
      <point x="657" y="-33"/>
      <point x="797" y="106"/>
      <point x="797" y="304" type="curve" smooth="yes"/>
      <point x="797" y="486"/>
      <point x="658" y="613"/>
      <point x="508" y="663" type="curve"/>
      <point x="632" y="703"/>
      <point x="771" y="799"/>
      <point x="771" y="961" type="curve" smooth="yes"/>
      <point x="771" y="1183"/>
      <point x="597" y="1275"/>
      <point x="418" y="1275" type="curve" smooth="yes"/>
      <point x="313" y="1275"/>
      <point x="195" y="1242"/>
      <point x="121" y="1192" type="curve"/>
      <point x="161" y="1097" type="line"/>
      <point x="222" y="1142"/>
      <point x="323" y="1173"/>
      <point x="410" y="1173" type="curve" smooth="yes"/>
      <point x="529" y="1173"/>
      <point x="654" y="1115"/>
      <point x="654" y="962" type="curve" smooth="yes"/>
      <point x="654" y="808"/>
      <point x="482" y="739"/>
      <point x="297" y="680" type="curve" smooth="yes"/>
      <point x="297" y="680"/>
      <point x="297" y="640"/>
      <point x="297" y="640" type="curve" smooth="yes"/>
      <point x="569" y="565"/>
      <point x="678" y="455"/>
      <point x="678" y="299" type="curve" smooth="yes"/>
      <point x="678" y="161"/>
      <point x="567" y="70"/>
      <point x="419" y="70" type="curve" smooth="yes"/>
      <point x="342" y="70"/>
      <point x="245" y="94"/>
      <point x="151" y="142" type="curve"/>
      <point x="121" y="47" type="line"/>
      <point x="204" y="-3"/>
      <point x="323" y="-33"/>
    </contour>
  </outline>
</glyph>
<glyph name="four" format="1">
  <advance width="1077"/>
  <unicode hex="0034"/>
  <outline>
    <contour>
      <point x="666.0" y="0.0" type="line"/>
      <point x="794" y="0" type="line"/>
      <point x="794" y="257" type="line"/>
      <point x="1008" y="257" type="line"/>
      <point x="982" y="363" type="line"/>
      <point x="794" y="363" type="line"/>
      <point x="794" y="1253" type="line"/>
      <point x="794" y="1253"/>
      <point x="73.0" y="257.0"/>
      <point x="73" y="257" type="curve"/>
      <point x="666" y="257" type="line"/>
    </contour>
    <contour>
      <point x="279" y="363" type="line"/>
      <point x="666" y="910" type="line"/>
      <point x="666" y="363" type="line"/>
    </contour>
  </outline>
</glyph>
<glyph name="seven" format="1">
  <advance width="987"/>
  <unicode hex="0037"/>
  <outline>
    <contour>
      <point x="301" y="0" type="line"/>
      <point x="428" y="0" type="line"/>
      <point x="827" y="1142" type="line"/>
      <point x="827" y="1241" type="line"/>
      <point x="189" y="1241" type="line"/>
      <point x="189" y="1135" type="line"/>
      <point x="687" y="1135" type="line"/>
    </contour>
  </outline>
</glyph>
<glyph name="eight" format="1">
  <advance width="1176"/>
  <unicode hex="0038"/>
  <outline>
    <contour>
      <point x="602" y="-34" type="curve" smooth="yes"/>
      <point x="809" y="-34"/>
      <point x="977" y="86"/>
      <point x="977" y="302" type="curve" smooth="yes"/>
      <point x="977" y="432"/>
      <point x="909" y="577"/>
      <point x="690" y="664" type="curve"/>
      <point x="898" y="741"/>
      <point x="951" y="854"/>
      <point x="951" y="975" type="curve"/>
      <point x="951" y="1129"/>
      <point x="833" y="1275"/>
      <point x="596" y="1275" type="curve" smooth="yes"/>
      <point x="378" y="1275"/>
      <point x="255" y="1129"/>
      <point x="255" y="970" type="curve" smooth="yes"/>
      <point x="255" y="846"/>
      <point x="351" y="729"/>
      <point x="492" y="657" type="curve"/>
      <point x="332" y="569"/>
      <point x="232" y="422"/>
      <point x="232" y="281" type="curve" smooth="yes"/>
      <point x="232" y="75"/>
      <point x="422" y="-34"/>
    </contour>
    <contour>
      <point x="570" y="710" type="curve"/>
      <point x="434" y="764"/>
      <point x="373" y="865"/>
      <point x="373" y="973" type="curve"/>
      <point x="373" y="1093"/>
      <point x="469" y="1173"/>
      <point x="596" y="1173" type="curve" smooth="yes"/>
      <point x="724" y="1173"/>
      <point x="834" y="1092"/>
      <point x="834" y="972" type="curve" smooth="yes"/>
      <point x="834" y="864"/>
      <point x="773" y="791"/>
    </contour>
    <contour>
      <point x="596" y="70" type="curve" smooth="yes"/>
      <point x="473" y="70"/>
      <point x="362" y="148"/>
      <point x="362" y="293" type="curve" smooth="yes"/>
      <point x="362" y="435"/>
      <point x="444" y="551"/>
      <point x="591" y="605" type="curve"/>
      <point x="761" y="543"/>
      <point x="857" y="434"/>
      <point x="857" y="301" type="curve" smooth="yes"/>
      <point x="857" y="148"/>
      <point x="732" y="70"/>
    </contour>
  </outline>
</glyph>
<glyph name="nine" format="1">
  <advance width="1111"/>
  <unicode hex="0039"/>
  <outline>
    <contour>
      <point x="324" y="0" type="line"/>
      <point x="473" y="0" type="line"/>
      <point x="473" y="0"/>
      <point x="719" y="318"/>
      <point x="792" y="427" type="curve" smooth="yes"/>
      <point x="908" y="599"/>
      <point x="954" y="708"/>
      <point x="954" y="872" type="curve" smooth="yes"/>
      <point x="954" y="1097"/>
      <point x="811" y="1274"/>
      <point x="570" y="1274" type="curve" smooth="yes"/>
      <point x="342" y="1274"/>
      <point x="174" y="1104"/>
      <point x="174" y="882" type="curve" smooth="yes"/>
      <point x="174" y="653"/>
      <point x="360" y="510"/>
      <point x="549" y="510" type="curve" smooth="yes"/>
      <point x="609" y="510"/>
      <point x="693" y="528"/>
      <point x="741" y="563" type="curve"/>
    </contour>
    <contour>
      <point x="570" y="610" type="curve" smooth="yes"/>
      <point x="407" y="610"/>
      <point x="296" y="718"/>
      <point x="296" y="883" type="curve" smooth="yes"/>
      <point x="296" y="1039"/>
      <point x="410" y="1167"/>
      <point x="577" y="1167" type="curve" smooth="yes"/>
      <point x="744" y="1167"/>
      <point x="832" y="1043"/>
      <point x="832" y="889" type="curve" smooth="yes"/>
      <point x="832" y="736"/>
      <point x="751" y="610"/>
    </contour>
  </outline>
</glyph>
<glyph name="B" format="1">
  <advance width="1079"/>
  <unicode hex="0042"/>
  <outline>
    <contour>
      <point x="161" y="0" type="line"/>
      <point x="511" y="0" type="line" smooth="yes"/>
      <point x="840" y="0"/>
      <point x="998" y="109"/>
      <point x="998" y="354" type="curve" smooth="yes"/>
      <point x="998" y="531"/>
      <point x="836" y="651"/>
      <point x="701" y="676" type="curve"/>
      <point x="859" y="712"/>
      <point x="919" y="842"/>
      <point x="919" y="938" type="curve" smooth="yes"/>
      <point x="919" y="1130"/>
      <point x="781" y="1242"/>
      <point x="455" y="1242" type="curve" smooth="yes"/>
      <point x="161" y="1242" type="line"/>
    </contour>
    <contour>
      <point x="289" y="106" type="line"/>
      <point x="289" y="622" type="line"/>
      <point x="484" y="622" type="line" smooth="yes"/>
      <point x="723" y="622"/>
      <point x="876" y="520"/>
      <point x="876" y="351" type="curve" smooth="yes"/>
      <point x="876" y="176"/>
      <point x="764" y="106"/>
      <point x="503" y="106" type="curve" smooth="yes"/>
    </contour>
    <contour>
      <point x="289" y="728" type="line"/>
      <point x="289" y="1136" type="line"/>
      <point x="468" y="1136" type="line" smooth="yes"/>
      <point x="674" y="1136"/>
      <point x="806" y="1103"/>
      <point x="806" y="940" type="curve" smooth="yes"/>
      <point x="806" y="726"/>
      <point x="582" y="728"/>
      <point x="471" y="728" type="curve" smooth="yes"/>
    </contour>
  </outline>
</glyph>
<glyph name="C" format="1">
  <advance width="1287"/>
  <unicode hex="0043"/>
  <outline>
    <contour>
      <point x="664" y="-34" type="curve"/>
      <point x="836" y="-34"/>
      <point x="994" y="24"/>
      <point x="1063" y="57" type="curve"/>
      <point x="1063" y="170" type="line"/>
      <point x="953" y="114"/>
      <point x="798" y="72"/>
      <point x="673" y="72" type="curve" smooth="yes"/>
      <point x="343" y="72"/>
      <point x="117" y="270"/>
      <point x="117" y="622" type="curve" smooth="yes"/>
      <point x="117" y="976"/>
      <point x="345" y="1168"/>
      <point x="666" y="1168" type="curve" smooth="yes"/>
      <point x="812" y="1168"/>
      <point x="952" y="1121"/>
      <point x="1063" y="1064" type="curve"/>
      <point x="1063" y="1169" type="line"/>
      <point x="998" y="1208"/>
      <point x="838" y="1274"/>
      <point x="666" y="1274" type="curve" smooth="yes"/>
      <point x="276" y="1274"/>
      <point x="-12" y="1030"/>
      <point x="-12" y="622" type="curve" smooth="yes"/>
      <point x="-12" y="216"/>
      <point x="268" y="-34"/>
    </contour>
  </outline>
</glyph>
<glyph name="D" format="1">
  <advance width="1398"/>
  <unicode hex="0044"/>
  <outline>
    <contour>
      <point x="643" y="0" type="line" smooth="yes"/>
      <point x="1067" y="0"/>
      <point x="1298" y="296"/>
      <point x="1298" y="628" type="curve" smooth="yes"/>
      <point x="1298" y="991"/>
      <point x="1086" y="1241"/>
      <point x="673" y="1241" type="curve" smooth="yes"/>
      <point x="161" y="1241" type="line"/>
      <point x="161" y="0" type="line"/>
    </contour>
    <contour>
      <point x="289" y="1135" type="line"/>
      <point x="675" y="1135" type="line" smooth="yes"/>
      <point x="970" y="1135"/>
      <point x="1169" y="986"/>
      <point x="1169" y="624" type="curve" smooth="yes"/>
      <point x="1169" y="324"/>
      <point x="953" y="106"/>
      <point x="625" y="106" type="curve" smooth="yes"/>
      <point x="289" y="106" type="line"/>
    </contour>
  </outline>
</glyph>
<glyph name="N" format="1">
  <advance width="1367"/>
  <unicode hex="004E"/>
  <outline>
    <contour>
      <point x="1206" y="-31" type="line"/>
      <point x="1206" y="1241" type="line"/>
      <point x="1078" y="1241" type="line"/>
      <point x="1078" y="270" type="line"/>
      <point x="161" y="1263" type="line"/>
      <point x="161" y="0" type="line"/>
      <point x="289" y="0" type="line"/>
      <point x="289" y="956" type="line"/>
    </contour>
  </outline>
</glyph>
<glyph name="Q" format="1">
  <advance width="1533"/>
  <unicode hex="0051"/>
  <outline>
    <contour>
      <point x="977" y="267" type="line"/>
      <point x="911" y="193" type="line"/>
      <point x="1243" y="-148" type="line"/>
      <point x="1352" y="-64" type="line"/>
    </contour>
    <component base="O"/>
  </outline>
</glyph>
<glyph name="W" format="1">
  <advance width="1757"/>
  <unicode hex="0057"/>
  <outline>
    <contour>
      <point x="786" y="1222" type="line"/>
      <point x="446" y="300" type="line"/>
      <point x="76" y="1241" type="line"/>
      <point x="-61" y="1241" type="line"/>
      <point x="453" y="-20" type="line"/>
      <point x="788" y="901" type="line"/>
      <point x="1158" y="-19" type="line"/>
      <point x="1637" y="1241" type="line"/>
      <point x="1494" y="1241" type="line"/>
      <point x="1152" y="300" type="line"/>
    </contour>
  </outline>
</glyph>
<glyph name="X" format="1">
  <advance width="1519"/>
  <unicode hex="0058"/>
  <outline>
    <contour>
      <point x="1502" y="0" type="line"/>
      <point x="354" y="1241" type="line"/>
      <point x="211" y="1241" type="line"/>
      <point x="1350" y="0" type="line"/>
    </contour>
    <contour>
      <point x="369" y="0" type="line"/>
      <point x="1450" y="1241" type="line"/>
      <point x="1293" y="1241" type="line"/>
      <point x="207" y="0" type="line"/>
    </contour>
  </outline>
</glyph>
<glyph name="Y" format="1">
  <advance width="1259"/>
  <unicode hex="0059"/>
  <outline>
    <contour>
      <point x="272" y="1241" type="line"/>
      <point x="143" y="1241" type="line"/>
      <point x="570" y="479" type="line"/>
      <point x="570" y="0" type="line"/>
      <point x="698" y="0" type="line"/>
      <point x="698" y="475" type="line"/>
      <point x="1112" y="1241" type="line"/>
      <point x="976" y="1241" type="line"/>
      <point x="636" y="592" type="line"/>
    </contour>
  </outline>
</glyph>
<glyph name="a" format="1">
  <advance width="899"/>
  <unicode hex="0061"/>
  <outline>
    <contour>
      <point x="387" y="79" type="curve" smooth="yes"/>
      <point x="303" y="79"/>
      <point x="255" y="137"/>
      <point x="255" y="208" type="curve" smooth="yes"/>
      <point x="255" y="270"/>
      <point x="276" y="340"/>
      <point x="419" y="374" type="curve"/>
      <point x="600" y="418" type="line"/>
      <point x="600" y="177" type="line"/>
      <point x="552" y="125"/>
      <point x="472" y="79"/>
    </contour>
    <contour>
      <point x="368" y="-16" type="curve" smooth="yes"/>
      <point x="415" y="-16"/>
      <point x="510" y="-15"/>
      <point x="624" y="100" type="curve"/>
      <point x="624" y="100"/>
      <point x="661" y="-7"/>
      <point x="808" y="-7" type="curve"/>
      <point x="807" y="-7"/>
      <point x="808" y="-7"/>
      <point x="813" y="-7" type="curve"/>
      <point x="839" y="99" type="line"/>
      <point x="824" y="99" type="line"/>
      <point x="780" y="99"/>
      <point x="728" y="134"/>
      <point x="728" y="209" type="curve" smooth="yes"/>
      <point x="728" y="572" type="line" smooth="yes"/>
      <point x="728" y="760"/>
      <point x="582" y="840"/>
      <point x="439" y="840" type="curve" smooth="yes"/>
      <point x="303" y="840"/>
      <point x="185" y="790"/>
      <point x="132" y="760" type="curve"/>
      <point x="168" y="670" type="line"/>
      <point x="226" y="699"/>
      <point x="325" y="742"/>
      <point x="410" y="742" type="curve" smooth="yes"/>
      <point x="499" y="742"/>
      <point x="601" y="723"/>
      <point x="601" y="545" type="curve"/>
      <point x="601" y="500" type="line"/>
      <point x="433" y="462" type="line" smooth="yes"/>
      <point x="140" y="396"/>
      <point x="128" y="266"/>
      <point x="128" y="193" type="curve" smooth="yes"/>
      <point x="128" y="68"/>
      <point x="233" y="-16"/>
    </contour>
  </outline>
</glyph>
<glyph name="c" format="1">
  <advance width="896"/>
  <unicode hex="0063"/>
  <outline>
    <contour>
      <point x="108" y="413" type="curve" smooth="yes"/>
      <point x="108" y="163"/>
      <point x="284" y="-16"/>
      <point x="570" y="-16" type="curve" smooth="yes"/>
      <point x="683" y="-16"/>
      <point x="764" y="20"/>
      <point x="805" y="43" type="curve"/>
      <point x="805" y="146" type="line"/>
      <point x="779" y="132"/>
      <point x="686" y="81"/>
      <point x="563" y="81" type="curve" smooth="yes"/>
      <point x="332" y="81"/>
      <point x="228" y="235"/>
      <point x="228" y="414" type="curve" smooth="yes"/>
      <point x="228" y="583"/>
      <point x="343" y="742"/>
      <point x="569" y="742" type="curve" smooth="yes"/>
      <point x="712" y="742"/>
      <point x="794" y="694"/>
      <point x="805" y="688" type="curve"/>
      <point x="805" y="783" type="line"/>
      <point x="786" y="795"/>
      <point x="695" y="840"/>
      <point x="566" y="840" type="curve" smooth="yes"/>
      <point x="298" y="840"/>
      <point x="108" y="668"/>
    </contour>
  </outline>
</glyph>
<glyph name="l" format="1">
  <advance width="597"/>
  <unicode hex="006C"/>
  <outline>
    <contour>
      <point x="293" y="1241" type="line"/>
      <point x="165" y="1219" type="line"/>
      <point x="165" y="218" type="line" smooth="yes"/>
      <point x="165" y="60"/>
      <point x="258" y="-16"/>
      <point x="383" y="-16" type="curve" smooth="yes"/>
      <point x="462" y="-16"/>
      <point x="509" y="1"/>
      <point x="542" y="14" type="curve"/>
      <point x="542" y="105" type="line"/>
      <point x="518" y="98"/>
      <point x="459" y="81"/>
      <point x="402" y="81" type="curve" smooth="yes"/>
      <point x="323" y="81"/>
      <point x="293" y="124"/>
      <point x="293" y="246" type="curve" smooth="yes"/>
    </contour>
  </outline>
</glyph>
<glyph name="m" format="1">
  <advance width="1681"/>
  <unicode hex="006D"/>
  <outline>
    <contour>
      <point x="293" y="595" type="line"/>
      <point x="293" y="595"/>
      <point x="397" y="742"/>
      <point x="586" y="742" type="curve" smooth="yes"/>
      <point x="732" y="742"/>
      <point x="787" y="690"/>
      <point x="787" y="559" type="curve" smooth="yes"/>
      <point x="787" y="0" type="line"/>
      <point x="915" y="0" type="line"/>
      <point x="915" y="595" type="line"/>
      <point x="915" y="595"/>
      <point x="1017" y="742"/>
      <point x="1206" y="742" type="curve" smooth="yes"/>
      <point x="1352" y="742"/>
      <point x="1409" y="690"/>
      <point x="1409" y="559" type="curve" smooth="yes"/>
      <point x="1409" y="0" type="line"/>
      <point x="1537" y="0" type="line"/>
      <point x="1537" y="580" type="line" smooth="yes"/>
      <point x="1537" y="735"/>
      <point x="1424" y="840"/>
      <point x="1241" y="840" type="curve" smooth="yes"/>
      <point x="996" y="840"/>
      <point x="893.0" y="685.0"/>
      <point x="893" y="685" type="curve"/>
      <point x="851" y="780"/>
      <point x="749" y="840"/>
      <point x="630" y="840" type="curve" smooth="yes"/>
      <point x="385" y="840"/>
      <point x="290" y="694"/>
      <point x="290" y="694" type="curve"/>
      <point x="290" y="824" type="line"/>
      <point x="165" y="824" type="line"/>
      <point x="165" y="0" type="line"/>
      <point x="293" y="0" type="line"/>
    </contour>
  </outline>
</glyph>
<glyph name="q" format="1">
  <advance width="1074"/>
  <unicode hex="0071"/>
  <outline>
    <contour>
      <point x="781" y="-413" type="line"/>
      <point x="909" y="-413" type="line"/>
      <point x="909" y="824" type="line"/>
      <point x="909" y="824"/>
      <point x="781" y="824"/>
      <point x="781" y="824" type="curve" smooth="yes"/>
      <point x="781" y="824"/>
      <point x="781" y="761"/>
      <point x="781" y="761" type="curve"/>
      <point x="694" y="824"/>
      <point x="593" y="840"/>
      <point x="514" y="840" type="curve" smooth="yes"/>
      <point x="266" y="840"/>
      <point x="108" y="662"/>
      <point x="108" y="423" type="curve" smooth="yes"/>
      <point x="108" y="156"/>
      <point x="281" y="-16"/>
      <point x="585" y="-16" type="curve" smooth="yes"/>
      <point x="703" y="-16"/>
      <point x="781" y="11"/>
      <point x="781" y="11" type="curve"/>
    </contour>
    <contour>
      <point x="587" y="82" type="curve" smooth="yes"/>
      <point x="356" y="82"/>
      <point x="235" y="197"/>
      <point x="235" y="427" type="curve" smooth="yes"/>
      <point x="235" y="631"/>
      <point x="378" y="743"/>
      <point x="527" y="743" type="curve" smooth="yes"/>
      <point x="648" y="743"/>
      <point x="746" y="692"/>
      <point x="781" y="665" type="curve"/>
      <point x="781" y="665"/>
      <point x="781" y="109"/>
      <point x="781" y="109" type="curve"/>
      <point x="781" y="109"/>
      <point x="700" y="82"/>
    </contour>
  </outline>
</glyph>
<glyph name="s" format="1">
  <advance width="812.0"/>
  <unicode hex="0073"/>
  <outline>
    <contour>
      <point x="684.0" y="779.0" type="line"/>
      <point x="634.0" y="802.0"/>
      <point x="539.0" y="840.0"/>
      <point x="418.0" y="840.0" type="curve" smooth="yes"/>
      <point x="231.0" y="840.0"/>
      <point x="144.0" y="735.0"/>
      <point x="144.0" y="631.0" type="curve" smooth="yes"/>
      <point x="144.0" y="563.0"/>
      <point x="171.0" y="491.0"/>
      <point x="291.0" y="428.0" type="curve"/>
      <point x="291.0" y="428.0"/>
      <point x="509.0" y="315.0"/>
      <point x="509.0" y="315.0" type="curve"/>
      <point x="580.0" y="278.0"/>
      <point x="604.0" y="244.0"/>
      <point x="604.0" y="194.0" type="curve" smooth="yes"/>
      <point x="604.0" y="127.0"/>
      <point x="550.0" y="81.0"/>
      <point x="464.0" y="81.0" type="curve" smooth="yes"/>
      <point x="374.0" y="81.0"/>
      <point x="229.0" y="115.0"/>
      <point x="134.0" y="174.0" type="curve"/>
      <point x="120" y="75" type="line"/>
      <point x="168" y="44"/>
      <point x="295.0" y="-16.0"/>
      <point x="466.0" y="-16.0" type="curve" smooth="yes"/>
      <point x="649.0" y="-16.0"/>
      <point x="721.0" y="94.0"/>
      <point x="721.0" y="198.0" type="curve" smooth="yes"/>
      <point x="721.0" y="263.0"/>
      <point x="692" y="337"/>
      <point x="576" y="398" type="curve" smooth="yes"/>
      <point x="355" y="514" type="line" smooth="yes"/>
      <point x="288" y="549"/>
      <point x="262" y="578"/>
      <point x="262" y="636" type="curve" smooth="yes"/>
      <point x="262" y="696"/>
      <point x="322" y="743"/>
      <point x="424" y="743" type="curve" smooth="yes"/>
      <point x="524" y="743"/>
      <point x="600" y="712"/>
      <point x="658" y="690" type="curve"/>
    </contour>
  </outline>
</glyph>
<glyph name="sterling" format="1">
  <advance width="1128"/>
  <unicode hex="00A3"/>
  <outline>
    <contour>
      <point x="799" y="-22" type="curve" smooth="yes"/>
      <point x="954" y="-22"/>
      <point x="1105" y="64"/>
      <point x="1105" y="269" type="curve"/>
      <point x="982" y="269" type="line"/>
      <point x="982" y="144"/>
      <point x="897" y="85"/>
      <point x="796" y="85" type="curve" smooth="yes"/>
      <point x="684" y="85"/>
      <point x="577" y="146"/>
      <point x="523" y="227" type="curve"/>
      <point x="546" y="296"/>
      <point x="554" y="361"/>
      <point x="554" y="423" type="curve" smooth="yes"/>
      <point x="554" y="470"/>
      <point x="546" y="519"/>
      <point x="535" y="568" type="curve"/>
      <point x="783" y="568" type="line"/>
      <point x="783" y="666" type="line"/>
      <point x="508" y="666" type="line"/>
      <point x="479" y="764"/>
      <point x="446" y="856"/>
      <point x="446" y="924" type="curve" smooth="yes"/>
      <point x="446" y="1089"/>
      <point x="581" y="1166"/>
      <point x="698" y="1166" type="curve" smooth="yes"/>
      <point x="824" y="1166"/>
      <point x="906" y="1084"/>
      <point x="930" y="1065" type="curve"/>
      <point x="991" y="1148" type="line"/>
      <point x="950" y="1193"/>
      <point x="839" y="1274"/>
      <point x="695" y="1274" type="curve" smooth="yes"/>
      <point x="520" y="1274"/>
      <point x="327" y="1164"/>
      <point x="327" y="920" type="curve" smooth="yes"/>
      <point x="327" y="852"/>
      <point x="360" y="762"/>
      <point x="389" y="666" type="curve"/>
      <point x="279" y="666" type="line"/>
      <point x="279" y="568" type="line"/>
      <point x="416" y="568" type="line"/>
      <point x="427" y="520"/>
      <point x="435" y="472"/>
      <point x="435" y="425" type="curve" smooth="yes"/>
      <point x="435" y="307"/>
      <point x="389" y="169"/>
      <point x="262" y="0" type="curve" smooth="yes"/>
      <point x="404" y="0" type="line" smooth="yes"/>
      <point x="434" y="41"/>
      <point x="458" y="80"/>
      <point x="478" y="119" type="curve"/>
      <point x="560" y="32"/>
      <point x="679" y="-22"/>
    </contour>
  </outline>
</glyph>
<glyph name="guillemotleft" format="1">
  <advance width="786"/>
  <unicode hex="00AB"/>
  <outline>
    <contour>
      <point x="658" y="197" type="curve" smooth="yes"/>
      <point x="674" y="197"/>
      <point x="685" y="208"/>
      <point x="685" y="221" type="curve" smooth="yes"/>
      <point x="685" y="229"/>
      <point x="678" y="237"/>
      <point x="669" y="248" type="curve" smooth="yes"/>
      <point x="498" y="497" type="line"/>
      <point x="669" y="747" type="line" smooth="yes"/>
      <point x="678" y="758"/>
      <point x="685" y="766"/>
      <point x="685" y="774" type="curve" smooth="yes"/>
      <point x="685" y="787"/>
      <point x="674" y="798"/>
      <point x="658" y="798" type="curve" smooth="yes"/>
      <point x="653" y="798"/>
      <point x="646" y="797"/>
      <point x="638" y="793" type="curve" smooth="yes"/>
      <point x="384" y="577" type="line" smooth="yes"/>
      <point x="351" y="555"/>
      <point x="334" y="526"/>
      <point x="334" y="497" type="curve" smooth="yes"/>
      <point x="334" y="469"/>
      <point x="350" y="440"/>
      <point x="384" y="418" type="curve" smooth="yes"/>
      <point x="638" y="202" type="line" smooth="yes"/>
      <point x="646" y="198"/>
      <point x="653" y="197"/>
    </contour>
    <contour>
      <point x="367" y="197" type="curve" smooth="yes"/>
      <point x="383" y="197"/>
      <point x="394" y="208"/>
      <point x="394" y="221" type="curve" smooth="yes"/>
      <point x="394" y="229"/>
      <point x="387" y="237"/>
      <point x="378" y="248" type="curve" smooth="yes"/>
      <point x="207" y="497" type="line"/>
      <point x="378" y="747" type="line" smooth="yes"/>
      <point x="387" y="758"/>
      <point x="394" y="766"/>
      <point x="394" y="774" type="curve" smooth="yes"/>
      <point x="394" y="787"/>
      <point x="383" y="798"/>
      <point x="367" y="798" type="curve" smooth="yes"/>
      <point x="362" y="798"/>
      <point x="355" y="797"/>
      <point x="347" y="793" type="curve" smooth="yes"/>
      <point x="93" y="577" type="line" smooth="yes"/>
      <point x="60" y="555"/>
      <point x="43" y="526"/>
      <point x="43" y="497" type="curve" smooth="yes"/>
      <point x="43" y="469"/>
      <point x="59" y="440"/>
      <point x="93" y="418" type="curve" smooth="yes"/>
      <point x="347" y="202" type="line" smooth="yes"/>
      <point x="355" y="198"/>
      <point x="362" y="197"/>
    </contour>
  </outline>
</glyph>
<glyph name="questiondown" format="1">
  <advance width="1094"/>
  <unicode hex="00BF"/>
  <outline>
    <contour>
      <point x="550" y="-446" type="curve" smooth="yes"/>
      <point x="688" y="-446"/>
      <point x="826" y="-386"/>
      <point x="888" y="-332" type="curve"/>
      <point x="835" y="-240" type="line"/>
      <point x="760" y="-296"/>
      <point x="664" y="-339"/>
      <point x="558" y="-339" type="curve" smooth="yes"/>
      <point x="440" y="-339"/>
      <point x="325" y="-273"/>
      <point x="325" y="-126" type="curve" smooth="yes"/>
      <point x="325" y="19"/>
      <point x="405" y="109"/>
      <point x="739" y="480" type="curve"/>
      <point x="739" y="480"/>
      <point x="627" y="480"/>
      <point x="627" y="480" type="curve"/>
      <point x="354" y="199"/>
      <point x="196" y="73"/>
      <point x="196" y="-119" type="curve" smooth="yes"/>
      <point x="196" y="-334"/>
      <point x="359" y="-446"/>
    </contour>
    <component base="period" xScale="-1.0" xyScale="1.11022302463e-16" yxScale="-1.11022302463e-16" yScale="-1.0" xOffset="962" yOffset="828"/>
  </outline>
</glyph>
<glyph name="Aacute" format="1">
  <advance width="1284"/>
  <unicode hex="00C1"/>
  <outline>
    <contour>
      <point x="594" y="1448.79980469" type="line" smooth="yes"/>
      <point x="588.666015625" y="1437.5546875"/>
      <point x="586.32421875" y="1427.06738281"/>
      <point x="586.32421875" y="1417.78027344" type="curve" smooth="yes"/>
      <point x="586.32421875" y="1393.48632812"/>
      <point x="602.34765625" y="1377.39746094"/>
      <point x="622.762695312" y="1377.39746094" type="curve" smooth="yes"/>
      <point x="635.411132812" y="1377.39746094"/>
      <point x="649.74609375" y="1383.57324219"/>
      <point x="663.0" y="1397.79980469" type="curve" smooth="yes"/>
      <point x="922.0" y="1675.79980469" type="line" smooth="yes"/>
      <point x="956.452148438" y="1712.77929688"/>
      <point x="970.459960938" y="1749.94921875"/>
      <point x="970.459960938" y="1782.29101562" type="curve" smooth="yes"/>
      <point x="970.459960938" y="1838.97070312"/>
      <point x="927.435546875" y="1880.8203125"/>
      <point x="876.038085938" y="1880.8203125" type="curve" smooth="yes"/>
      <point x="833.556640625" y="1880.8203125"/>
      <point x="785.35546875" y="1852.23242188"/>
      <point x="751.0" y="1779.79980469" type="curve" smooth="yes"/>
    </contour>
    <contour>
      <point x="322.021484375" y="60.0" type="line"/>
      <point x="443.021484375" y="350.0" type="line"/>
      <point x="841.612304688" y="350.0" type="line"/>
      <point x="973.612304688" y="60.0" type="line"/>
      <point x="1159.25292969" y="60.0" type="line"/>
      <point x="635.028320312" y="1168.48144531" type="line"/>
      <point x="130.250976562" y="60.0" type="line"/>
    </contour>
    <contour>
      <point x="634.375" y="897.525390625" type="line"/>
      <point x="838.448242188" y="414.0" type="line"/>
      <point x="448.685546875" y="414.0" type="line"/>
    </contour>
  </outline>
</glyph>
<glyph name="Egrave" format="1">
  <advance width="973"/>
  <unicode hex="00C8"/>
  <outline>
    <contour>
      <point x="556.215820312" y="1448.79980469" type="curve" smooth="yes"/>
      <point x="399.215820312" y="1779.79980469" type="line" smooth="yes"/>
      <point x="365.215820312" y="1851.79980469"/>
      <point x="316.215820312" y="1880.79980469"/>
      <point x="274.215820312" y="1880.79980469" type="curve" smooth="yes"/>
      <point x="223.215820312" y="1880.79980469"/>
      <point x="179.215820312" y="1838.79980469"/>
      <point x="179.215820312" y="1781.79980469" type="curve" smooth="yes"/>
      <point x="179.215820312" y="1749.79980469"/>
      <point x="194.215820312" y="1712.79980469"/>
      <point x="228.215820312" y="1675.79980469" type="curve" smooth="yes"/>
      <point x="487.215820312" y="1397.79980469" type="line" smooth="yes"/>
      <point x="500.215820312" y="1383.79980469"/>
      <point x="514.215820312" y="1377.79980469"/>
      <point x="527.215820312" y="1377.79980469" type="curve" smooth="yes"/>
      <point x="547.215820312" y="1377.79980469"/>
      <point x="563.215820312" y="1393.79980469"/>
      <point x="563.215820312" y="1417.79980469" type="curve" smooth="yes"/>
      <point x="563.215820312" y="1426.79980469"/>
      <point x="561.215820312" y="1437.79980469"/>
    </contour>
    <contour>
      <point x="198.0" y="60.0" type="line"/>
      <point x="811.0" y="60.0" type="line"/>
      <point x="811.0" y="206.0" type="line"/>
      <point x="370.0" y="206.0" type="line"/>
      <point x="370.0" y="572.0" type="line"/>
      <point x="735.0" y="572.0" type="line"/>
      <point x="735.0" y="704.0" type="line"/>
      <point x="372.0" y="704.0" type="line"/>
      <point x="372.0" y="1045.0" type="line"/>
      <point x="801.0" y="1045.0" type="line"/>
      <point x="801.0" y="1181.0" type="line"/>
      <point x="198.0" y="1181.0" type="line"/>
    </contour>
  </outline>
</glyph>
<glyph name="Oslash" format="1">
  <advance width="1533"/>
  <unicode hex="00D8"/>
  <outline>
    <contour>
      <point x="1184" y="1315" type="line"/>
      <point x="319" y="-42" type="line"/>
      <point x="385" y="-83" type="line"/>
      <point x="1250" y="1274" type="line"/>
    </contour>
    <component base="O"/>
  </outline>
</glyph>
<glyph name="Thorn" format="1">
  <advance width="1063"/>
  <unicode hex="00DE"/>
  <outline>
    <contour>
      <point x="345" y="0" type="line"/>
      <point x="345" y="291" type="line"/>
      <point x="534" y="291" type="line" smooth="yes"/>
      <point x="815" y="291"/>
      <point x="1013" y="372"/>
      <point x="1013" y="653" type="curve" smooth="yes"/>
      <point x="1013" y="893"/>
      <point x="841" y="1007"/>
      <point x="538" y="1007" type="curve" smooth="yes"/>
      <point x="345" y="1007" type="line"/>
      <point x="345" y="1241" type="line"/>
      <point x="217" y="1241" type="line"/>
      <point x="217" y="0" type="line"/>
    </contour>
    <contour>
      <point x="796" y="905"/>
      <point x="885" y="798"/>
      <point x="885" y="648" type="curve" smooth="yes"/>
      <point x="885" y="457"/>
      <point x="754" y="393"/>
      <point x="548" y="393" type="curve" smooth="yes"/>
      <point x="345" y="393" type="line"/>
      <point x="345" y="905" type="line"/>
      <point x="543" y="905" type="line" smooth="yes"/>
    </contour>
  </outline>
</glyph>
<glyph name="oacute" format="1">
  <advance width="1146"/>
  <unicode hex="00F3"/>
  <outline>
    <contour>
      <point x="600" y="1108.5" type="line" smooth="yes"/>
      <point x="594.666015625" y="1097.25488281"/>
      <point x="592.32421875" y="1086.76757812"/>
      <point x="592.32421875" y="1077.48046875" type="curve" smooth="yes"/>
      <point x="592.32421875" y="1053.18652344"/>
      <point x="608.34765625" y="1037.09765625"/>
      <point x="628.762695312" y="1037.09765625" type="curve" smooth="yes"/>
      <point x="641.411132812" y="1037.09765625"/>
      <point x="655.74609375" y="1043.2734375"/>
      <point x="669.0" y="1057.5" type="curve" smooth="yes"/>
      <point x="928.0" y="1335.5" type="line" smooth="yes"/>
      <point x="962.452148438" y="1372.47851562"/>
      <point x="976.459960938" y="1409.6484375"/>
      <point x="976.459960938" y="1441.99121094" type="curve" smooth="yes"/>
      <point x="976.459960938" y="1498.67089844"/>
      <point x="933.435546875" y="1540.51953125"/>
      <point x="882.038085938" y="1540.51953125" type="curve" smooth="yes"/>
      <point x="839.556640625" y="1540.51953125"/>
      <point x="791.35546875" y="1511.93164062"/>
      <point x="757.0" y="1439.5" type="curve" smooth="yes"/>
    </contour>
    <contour>
      <point x="564.0" y="843.0" type="curve" smooth="yes"/>
      <point x="316.4296875" y="843.0"/>
      <point x="130.0" y="682.111328125"/>
      <point x="130.0" y="440.958007812" type="curve" smooth="yes"/>
      <point x="130.0" y="197.484375"/>
      <point x="316.831054688" y="35.0"/>
      <point x="564.0" y="35.0" type="curve" smooth="yes"/>
      <point x="811.16796875" y="35.0"/>
      <point x="998.0" y="197.479492188"/>
      <point x="998.0" y="440.958007812" type="curve" smooth="yes"/>
      <point x="998.0" y="682.107421875"/>
      <point x="811.5703125" y="843.0"/>
    </contour>
    <contour>
      <point x="564.0" y="141.0" type="curve" smooth="yes"/>
      <point x="375.802734375" y="141.0"/>
      <point x="278.0" y="293.723632812"/>
      <point x="278.0" y="439.0" type="curve" smooth="yes"/>
      <point x="278.0" y="581.864257812"/>
      <point x="373.416015625" y="737.0"/>
      <point x="564.0" y="737.0" type="curve" smooth="yes"/>
      <point x="754.588867188" y="737.0"/>
      <point x="850.0" y="581.865234375"/>
      <point x="850.0" y="439.0" type="curve" smooth="yes"/>
      <point x="850.0" y="293.723632812"/>
      <point x="752.193359375" y="141.0"/>
    </contour>
  </outline>
</glyph>
<glyph name="Eogonek" format="1">
  <advance width="973"/>
  <unicode hex="0118"/>
  <outline>
    <contour>
      <point x="598" y="0" type="line"/>
      <point x="489" y="-92"/>
      <point x="448" y="-166"/>
      <point x="448" y="-225" type="curve" smooth="yes"/>
      <point x="448" y="-299"/>
      <point x="513" y="-348"/>
      <point x="588" y="-376" type="curve"/>
      <point x="657" y="-318" type="line"/>
      <point x="592" y="-263"/>
      <point x="568" y="-214"/>
      <point x="568" y="-170" type="curve" smooth="yes"/>
      <point x="568" y="-109"/>
      <point x="613" y="-56"/>
      <point x="657" y="0" type="curve"/>
    </contour>
    <contour>
      <point x="198" y="60" type="line"/>
      <point x="811" y="60" type="line"/>
      <point x="811" y="206" type="line"/>
      <point x="370" y="206" type="line"/>
      <point x="370" y="572" type="line"/>
      <point x="735" y="572" type="line"/>
      <point x="735" y="704" type="line"/>
      <point x="372" y="704" type="line"/>
      <point x="372" y="1045" type="line"/>
      <point x="801" y="1045" type="line"/>
      <point x="801" y="1181" type="line"/>
      <point x="198" y="1181" type="line"/>
    </contour>
  </outline>
</glyph>
<glyph name="caron" format="1">
  <advance width="370"/>
  <unicode hex="02C7"/>
  <outline>
    <contour>
      <point x="242" y="86" type="curve" smooth="yes"/>
      <point x="267" y="86"/>
      <point x="291" y="104"/>
      <point x="303" y="126" type="curve" smooth="yes"/>
      <point x="470" y="446" type="line" smooth="yes"/>
      <point x="473" y="452"/>
      <point x="474" y="457"/>
      <point x="474" y="461" type="curve" smooth="yes"/>
      <point x="474" y="473"/>
      <point x="466" y="481"/>
      <point x="456" y="481" type="curve" smooth="yes"/>
      <point x="449" y="481"/>
      <point x="442" y="477"/>
      <point x="435" y="469" type="curve" smooth="yes"/>
      <point x="242" y="241" type="line"/>
      <point x="49" y="469" type="line" smooth="yes"/>
      <point x="42" y="477"/>
      <point x="35" y="481"/>
      <point x="28" y="481" type="curve" smooth="yes"/>
      <point x="18" y="481"/>
      <point x="10" y="473"/>
      <point x="10" y="461" type="curve" smooth="yes"/>
      <point x="10" y="457"/>
      <point x="11" y="452"/>
      <point x="14" y="446" type="curve" smooth="yes"/>
      <point x="181" y="126" type="line" smooth="yes"/>
      <point x="192" y="105"/>
      <point x="217" y="86"/>
    </contour>
  </outline>
</glyph>
<glyph name="ring" format="1">
  <advance width="1106"/>
  <unicode hex="02DA"/>
  <outline>
    <contour>
      <point x="545" y="629" type="curve" smooth="yes"/>
      <point x="545" y="497"/>
      <point x="440" y="421"/>
      <point x="326" y="421" type="curve" smooth="yes"/>
      <point x="213" y="421"/>
      <point x="109" y="496"/>
      <point x="109" y="629" type="curve" smooth="yes"/>
      <point x="109" y="763"/>
      <point x="213" y="840"/>
      <point x="327" y="840" type="curve" smooth="yes"/>
      <point x="434" y="840"/>
      <point x="545" y="763"/>
    </contour>
    <contour>
      <point x="326" y="495" type="curve" smooth="yes"/>
      <point x="414" y="495"/>
      <point x="458" y="561"/>
      <point x="458" y="628" type="curve" smooth="yes"/>
      <point x="458" y="696"/>
      <point x="412" y="764"/>
      <point x="326" y="764" type="curve" smooth="yes"/>
      <point x="240" y="764"/>
      <point x="194" y="696"/>
      <point x="194" y="629" type="curve" smooth="yes"/>
      <point x="194" y="556"/>
      <point x="238" y="495"/>
    </contour>
  </outline>
</glyph>
<glyph name="tilde" format="1">
  <advance width="1080"/>
  <unicode hex="02DC"/>
  <outline>
    <contour>
      <point x="808" y="426" type="line"/>
      <point x="808" y="587"/>
      <point x="745" y="634"/>
      <point x="659" y="634" type="curve" smooth="yes"/>
      <point x="559" y="634"/>
      <point x="413" y="524"/>
      <point x="349" y="524" type="curve" smooth="yes"/>
      <point x="304" y="524"/>
      <point x="285" y="549"/>
      <point x="285" y="620" type="curve"/>
      <point x="187" y="620" type="line"/>
      <point x="187" y="462"/>
      <point x="261" y="412"/>
      <point x="337" y="412" type="curve" smooth="yes"/>
      <point x="462" y="412"/>
      <point x="570" y="518"/>
      <point x="654" y="518" type="curve" smooth="yes"/>
      <point x="694" y="518"/>
      <point x="710" y="486"/>
      <point x="710" y="426" type="curve"/>
    </contour>
  </outline>
</glyph>
